<svg width="52" height="52" viewBox="0 0 52 52" fill="none" xmlns="http://www.w3.org/2000/svg">
<path fill-rule="evenodd" clip-rule="evenodd" d="M26 52C40.3594 52 52 40.3594 52 26C52 11.6406 40.3594 0 26 0C11.6406 0 0 11.6406 0 26C0 40.3594 11.6406 52 26 52Z" fill="white"/>
<path fill-rule="evenodd" clip-rule="evenodd" d="M33.7037 15.1478C33.7037 14.4936 34.2348 13.963 34.8889 13.963C35.543 13.963 36.0741 14.4936 36.0741 15.1478C36.0741 15.8027 35.543 16.3333 34.8889 16.3333C34.2348 16.3333 33.7037 15.8027 33.7037 15.1478ZM15.9259 15.1478C15.9259 14.4936 16.4565 13.963 17.1108 13.963C17.7657 13.963 18.2963 14.4936 18.2963 15.1478C18.2963 15.8027 17.7657 16.3333 17.1108 16.3333C16.4565 16.3333 15.9259 15.8027 15.9259 15.1478ZM39.9202 11H12.0798C10.931 11 10 11.9192 10 13.0526V18.7037H42V13.0526C42 12.2024 41.4761 11.4726 40.7299 11.161C40.4811 11.0573 40.2071 11 39.9202 11Z" fill="#BA3A26"/>
<path fill-rule="evenodd" clip-rule="evenodd" d="M10.0006 18.7037L10 25.3769V37.9256C10 39.0916 10.931 40.037 12.0798 40.037H39.9202C41.069 40.037 41.9994 39.0916 41.9994 37.9256L42 29.3781V18.7037H10.0006Z" fill="#E7E9E9"/>
<path d="M16.5218 24.0371C16.1926 24.0371 15.9258 23.7717 15.9258 23.4445C15.9258 23.1172 16.1926 22.8519 16.5218 22.8519H35.4779C35.8071 22.8519 36.0739 23.1172 36.0739 23.4445C36.0739 23.7717 35.8071 24.0371 35.4779 24.0371H16.5218Z" fill="#78706A"/>
<path d="M16.5218 28.1852C16.1926 28.1852 15.9258 27.9199 15.9258 27.5926C15.9258 27.2653 16.1926 27 16.5218 27H35.4779C35.8071 27 36.0739 27.2653 36.0739 27.5926C36.0739 27.9199 35.8071 28.1852 35.4779 28.1852H16.5218Z" fill="#78706A"/>
<path fill-rule="evenodd" clip-rule="evenodd" d="M27.1855 27.5926C27.1855 29.229 28.5121 30.5556 30.1485 30.5556C31.7849 30.5556 33.1115 29.229 33.1115 27.5926C33.1115 25.9562 31.7849 24.6296 30.1485 24.6296C28.5121 24.6296 27.1855 25.9562 27.1855 27.5926ZM31.9263 27.5926C31.9263 28.5744 31.1303 29.3704 30.1485 29.3704C29.1667 29.3704 28.3707 28.5744 28.3707 27.5926C28.3707 26.6108 29.1667 25.8148 30.1485 25.8148C31.1303 25.8148 31.9263 26.6108 31.9263 27.5926Z" fill="#06893A"/>
<path d="M16.5218 32.3333C16.1926 32.3333 15.9258 32.068 15.9258 31.7408C15.9258 31.4135 16.1926 31.1482 16.5218 31.1482H35.4779C35.8071 31.1482 36.0739 31.4135 36.0739 31.7408C36.0739 32.068 35.8071 32.3333 35.4779 32.3333H16.5218Z" fill="#78706A"/>
<path d="M16.5218 36.4815C16.1926 36.4815 15.9258 36.2162 15.9258 35.8889C15.9258 35.5616 16.1926 35.2963 16.5218 35.2963H35.4779C35.8071 35.2963 36.0739 35.5616 36.0739 35.8889C36.0739 36.2162 35.8071 36.4815 35.4779 36.4815H16.5218Z" fill="#78706A"/>
</svg>
