<?xml version="1.0" encoding="UTF-8"?>
<svg width="36px" height="180px" viewBox="0 0 36 180" version="1.1" xmlns="http://www.w3.org/2000/svg" xmlns:xlink="http://www.w3.org/1999/xlink">
    <!-- Generator: Sketch 64 (93537) - https://sketch.com -->
    <title>grått trinn lønnskompensajon</title>
    <desc>Created with Sketch.</desc>
    <g id="Page-1" stroke="none" stroke-width="1" fill="none" fill-rule="evenodd">
        <g id="tidslinje-plus-tekster-copy-2" transform="translate(-142.000000, -327.000000)" fill="#B7B1A9">
            <g id="grått-trinn-lønnskompensajon" transform="translate(142.000000, 327.000000)">
                <circle id="Oval-Copy" cx="18" cy="18" r="18"></circle>
                <polygon id="Fill-42-Copy-56" points="14 44 22 44 22 38 14 38"></polygon>
                <polygon id="Fill-42-Copy-55" points="14 52 22 52 22 46 14 46"></polygon>
                <polygon id="Fill-42-Copy-54" points="14 60 22 60 22 54 14 54"></polygon>
                <polygon id="Fill-42-Copy-53" points="14 68 22 68 22 62 14 62"></polygon>
                <polygon id="Fill-42-Copy-52" points="14 76 22 76 22 70 14 70"></polygon>
                <polygon id="Fill-42-Copy-51" points="14 84 22 84 22 78 14 78"></polygon>
                <polygon id="Fill-42-Copy-50" points="14 92 22 92 22 86 14 86"></polygon>
                <polygon id="Fill-42-Copy-49" points="14 100 22 100 22 94 14 94"></polygon>
                <polygon id="Fill-42-Copy-39" points="14 108 22 108 22 102 14 102"></polygon>
                <polygon id="Fill-42-Copy-38" points="14 116 22 116 22 110 14 110"></polygon>
                <polygon id="Fill-42-Copy-37" points="14 124 22 124 22 118 14 118"></polygon>
                <polygon id="Fill-42-Copy-36" points="14 132 22 132 22 126 14 126"></polygon>
                <polygon id="Fill-42-Copy-35" points="14 140 22 140 22 134 14 134"></polygon>
                <polygon id="Fill-42-Copy-34" points="14 148 22 148 22 142 14 142"></polygon>
                <polygon id="Fill-42-Copy-33" points="14 156 22 156 22 150 14 150"></polygon>
                <polygon id="Fill-42-Copy-32" points="14 164 22 164 22 158 14 158"></polygon>
                <polygon id="Fill-42-Copy-31" points="14 172 22 172 22 166 14 166"></polygon>
                <polygon id="Fill-42-Copy-21" points="14 180 22 180 22 174 14 174"></polygon>
            </g>
        </g>
    </g>
</svg>
