<?xml version="1.0" encoding="UTF-8"?>
<svg width="36px" height="98px" viewBox="0 0 36 98" version="1.1" xmlns="http://www.w3.org/2000/svg" xmlns:xlink="http://www.w3.org/1999/xlink">
    <!-- Generator: Sketch 64 (93537) - https://sketch.com -->
    <title>grått trinn dagpenger</title>
    <desc>Created with Sketch.</desc>
    <g id="Page-1" stroke="none" stroke-width="1" fill="none" fill-rule="evenodd">
        <g id="tidslinje-plus-tekster-copy-2" transform="translate(-207.000000, -327.000000)" fill="#B7B1A9">
            <g id="grått-trinn-dagpenger" transform="translate(207.000000, 327.000000)">
                <circle id="Oval-Copy" cx="18" cy="18" r="18"></circle>
                <polygon id="Fill-42-Copy-56" points="14 44 22 44 22 38 14 38"></polygon>
                <polygon id="Fill-42-Copy-55" points="14 52 22 52 22 46 14 46"></polygon>
                <polygon id="Fill-42-Copy-54" points="14 60 22 60 22 54 14 54"></polygon>
                <polygon id="Fill-42-Copy-53" points="14 68 22 68 22 62 14 62"></polygon>
                <polygon id="Fill-42-Copy-52" points="14 76 22 76 22 70 14 70"></polygon>
                <polygon id="Fill-42-Copy-61" points="14 84 22 84 22 78 14 78"></polygon>
                <polygon id="Fill-42-Copy-42" points="14 90 22 90 22 86 14 86"></polygon>
                <polygon id="Fill-42-Copy-41" points="14 94 22 94 22 92 14 92"></polygon>
                <polygon id="Fill-42-Copy-40" points="14 98 22 98 22 96 14 96"></polygon>
            </g>
        </g>
    </g>
</svg>