<svg width="52" height="52" viewBox="0 0 52 52" fill="none" xmlns="http://www.w3.org/2000/svg">
<path fill-rule="evenodd" clip-rule="evenodd" d="M26 52C40.3594 52 52 40.3594 52 26C52 11.6406 40.3594 0 26 0C11.6406 0 0 11.6406 0 26C0 40.3594 11.6406 52 26 52Z" fill="white"/>
<path fill-rule="evenodd" clip-rule="evenodd" d="M32.4078 21.3192L28.074 25.9374C27.1829 26.8866 25.6558 26.8765 24.7774 25.9159L20.5723 21.3148C20.2038 20.9117 20 20.389 20 19.8467V10.1952C20 8.98274 20.9986 8 22.2305 8H30.7695C32.0014 8 33 8.98274 33 10.1952V19.8302C33 20.382 32.7885 20.9142 32.4078 21.3192Z" fill="#CCDEE6"/>
<path fill-rule="evenodd" clip-rule="evenodd" d="M32.4078 31.3222L28.074 26.7047C27.1829 25.7564 25.6558 25.7665 24.7774 26.7269L20.5723 31.3267C20.2038 31.7296 20 32.2522 20 32.7937V41.8054C20 43.0175 20.9986 44 22.2305 44H30.7695C32.0014 44 33 43.0175 33 41.8054V32.8114C33 32.2591 32.7885 31.7271 32.4078 31.3222Z" fill="#CCDEE6"/>
<path fill-rule="evenodd" clip-rule="evenodd" d="M31.2277 20.6526L27.7595 24.1756C27.0479 24.9003 25.8259 24.8926 25.1231 24.1597L21.7582 20.6494C21.4639 20.3413 21.3008 19.9426 21.3008 19.5293V14.3923C21.3008 14.0568 21.5896 13.7857 21.9471 13.7857H30.9688C31.3739 13.7857 31.7008 14.0932 31.7008 14.4721V19.5159C31.7008 19.9369 31.5315 20.3432 31.2277 20.6526Z" fill="#337C9B"/>
<path fill-rule="evenodd" clip-rule="evenodd" d="M31.7008 40.7643V41.0933C31.7008 41.6334 31.2373 42.0714 30.6644 42.0714H22.3379C21.7656 42.0714 21.3008 41.6334 21.3008 41.0933V40.6879C21.3008 40.3236 21.487 39.9805 21.7996 39.7669L25.5184 37.2283C26.1049 36.828 26.8973 36.8287 27.4825 37.2302L31.1489 39.7412C31.4955 39.9792 31.7008 40.3602 31.7008 40.7643Z" fill="#337C9B"/>
<path fill-rule="evenodd" clip-rule="evenodd" d="M27.1496 28.572C27.1496 28.9268 26.859 29.2143 26.4999 29.2143C26.1408 29.2143 25.8496 28.9268 25.8496 28.572C25.8496 28.2167 26.1408 27.9286 26.4999 27.9286C26.859 27.9286 27.1496 28.2167 27.1496 28.572Z" fill="#337C9B"/>
<path fill-rule="evenodd" clip-rule="evenodd" d="M27.1496 31.1429C27.1496 31.4982 26.859 31.7857 26.4999 31.7857C26.1408 31.7857 25.8496 31.4982 25.8496 31.1429C25.8496 30.7881 26.1408 30.5 26.4999 30.5C26.859 30.5 27.1496 30.7881 27.1496 31.1429Z" fill="#337C9B"/>
<path fill-rule="evenodd" clip-rule="evenodd" d="M27.1496 33.0708C27.1496 33.4262 26.859 33.7143 26.4999 33.7143C26.1408 33.7143 25.8496 33.4262 25.8496 33.0708C25.8496 32.7161 26.1408 32.4286 26.4999 32.4286C26.859 32.4286 27.1496 32.7161 27.1496 33.0708Z" fill="#337C9B"/>
<path fill-rule="evenodd" clip-rule="evenodd" d="M27.1496 35.6426C27.1496 35.9977 26.859 36.2857 26.4999 36.2857C26.1408 36.2857 25.8496 35.9977 25.8496 35.6426C25.8496 35.2874 26.1408 35 26.4999 35C26.859 35 27.1496 35.2874 27.1496 35.6426Z" fill="#337C9B"/>
<path fill-rule="evenodd" clip-rule="evenodd" d="M27.1496 26C27.1496 26.3553 26.8589 26.6429 26.4996 26.6429C26.1403 26.6429 25.8496 26.3553 25.8496 26C25.8496 25.6447 26.1403 25.3571 26.4996 25.3571C26.8589 25.3571 27.1496 25.6447 27.1496 26Z" fill="#337C9B"/>
</svg>
