<svg width="82" height="82" viewBox="0 0 82 82" fill="none" xmlns="http://www.w3.org/2000/svg">
<path fill-rule="evenodd" clip-rule="evenodd" d="M41 82C63.6437 82 82 63.6437 82 41C82 18.3563 63.6437 0 41 0C18.3563 0 0 18.3563 0 41C0 63.6437 18.3563 82 41 82Z" fill="#99BDCD"/>
<path fill-rule="evenodd" clip-rule="evenodd" d="M48.8059 47.6873C54.0921 44.8461 57.686 39.2642 57.686 32.8426C57.686 23.5406 50.145 15.9996 40.843 15.9996C31.541 15.9996 24 23.5406 24 32.8426C24 39.2637 27.5934 44.8453 32.8789 47.6866V48.8203C32.8789 51.6933 35.2089 54.0223 38.0819 54.0223H43.6049C46.4779 54.0223 48.8059 51.6933 48.8059 48.8203V47.6873Z" fill="#FFBD66"/>
<path fill-rule="evenodd" clip-rule="evenodd" d="M47.4924 59.1433H34.1494C33.4364 59.1433 32.8574 58.5643 32.8574 57.8513V56.4793C32.8574 55.7663 33.4364 55.1873 34.1494 55.1873H47.4924C48.2064 55.1873 48.7844 55.7663 48.7844 56.4793V57.8513C48.7844 58.5643 48.2064 59.1433 47.4924 59.1433ZM47.4924 63.9846H34.1494C33.4364 63.9846 32.8574 63.4056 32.8574 62.6926V61.3206C32.8574 60.6076 33.4364 60.0286 34.1494 60.0286H47.4924C48.2064 60.0286 48.7844 60.6076 48.7844 61.3206V62.6926C48.7844 63.4056 48.2064 63.9846 47.4924 63.9846ZM38.2036 64.8704H43.4846C44.2806 64.8704 44.6406 65.8824 44.0126 66.3714C43.1376 67.0544 42.0416 67.4624 40.8436 67.4624C39.6456 67.4624 38.5496 67.0544 37.6736 66.3714C37.0466 65.8824 37.4076 64.8704 38.2036 64.8704Z" fill="#59514B"/>
</svg>
