<svg width="82" height="82" viewBox="0 0 82 82" fill="none" xmlns="http://www.w3.org/2000/svg">
<path fill-rule="evenodd" clip-rule="evenodd" d="M41 82C63.6437 82 82 63.6437 82 41C82 18.3563 63.6437 0 41 0C18.3563 0 0 18.3563 0 41C0 63.6437 18.3563 82 41 82Z" fill="#99C2E8"/>
<path fill-rule="evenodd" clip-rule="evenodd" d="M48.9531 46.1477C54.3398 43.5224 58.002 38.3647 58.002 32.4311C58.002 23.836 50.3177 16.8681 40.8389 16.8681C31.3601 16.8681 23.6758 23.836 23.6758 32.4311C23.6758 38.3643 27.3375 43.5217 32.7234 46.1471V47.1946C32.7234 49.8492 35.0977 52.0012 38.0253 52.0012H43.6533C46.5809 52.0012 48.9531 49.8492 48.9531 47.1946V46.1477Z" fill="#FFBD66"/>
<path fill-rule="evenodd" clip-rule="evenodd" d="M47.6143 56.7331H34.0177C33.2912 56.7331 32.7012 56.1981 32.7012 55.5393V54.2716C32.7012 53.6128 33.2912 53.0778 34.0177 53.0778H47.6143C48.3419 53.0778 48.9309 53.6128 48.9309 54.2716V55.5393C48.9309 56.1981 48.3419 56.7331 47.6143 56.7331ZM47.6143 61.2065H34.0177C33.2912 61.2065 32.7012 60.6715 32.7012 60.0127V58.745C32.7012 58.0861 33.2912 57.5511 34.0177 57.5511H47.6143C48.3419 57.5511 48.9309 58.0861 48.9309 58.745V60.0127C48.9309 60.6715 48.3419 61.2065 47.6143 61.2065ZM38.149 62.025H43.5303C44.3415 62.025 44.7083 62.9601 44.0684 63.4119C43.1767 64.043 42.0599 64.42 40.8391 64.42C39.6184 64.42 38.5015 64.043 37.6089 63.4119C36.97 62.9601 37.3378 62.025 38.149 62.025Z" fill="#59514B"/>
</svg>
